<svg width="18" height="18" viewBox="0 0 18 18" fill="none" xmlns="http://www.w3.org/2000/svg">
<path d="M7.34821 11.7999C7.27679 11.5231 7.13249 11.2704 6.93032 11.0683C6.72815 10.8661 6.47549 10.7218 6.19864 10.6504L1.29077 9.38479C1.20704 9.36102 1.13334 9.31059 1.08087 9.24115C1.02839 9.17171 1 9.08704 1 9C1 8.91296 1.02839 8.82829 1.08087 8.75885C1.13334 8.68941 1.20704 8.63898 1.29077 8.61521L6.19864 7.34884C6.4754 7.27749 6.72798 7.1333 6.93015 6.93128C7.13231 6.72926 7.27667 6.47677 7.34821 6.20007L8.61378 1.29219C8.63731 1.20813 8.68769 1.13407 8.75723 1.08131C8.82678 1.02856 8.91168 1 8.99897 1C9.08626 1 9.17116 1.02856 9.24071 1.08131C9.31025 1.13407 9.36063 1.20813 9.38416 1.29219L10.6489 6.20007C10.7203 6.47692 10.8647 6.72957 11.0668 6.93175C11.269 7.13392 11.5216 7.27822 11.7985 7.34964L16.7064 8.61441C16.7908 8.63769 16.8652 8.68801 16.9182 8.75767C16.9713 8.82732 17 8.91245 17 9C17 9.08755 16.9713 9.17268 16.9182 9.24233C16.8652 9.31198 16.7908 9.36231 16.7064 9.38559L11.7985 10.6504C11.5216 10.7218 11.269 10.8661 11.0668 11.0683C10.8647 11.2704 10.7203 11.5231 10.6489 11.7999L9.38336 16.7078C9.35983 16.7919 9.30946 16.8659 9.23991 16.9187C9.17036 16.9714 9.08546 17 8.99817 17C8.91088 17 8.82598 16.9714 8.75643 16.9187C8.68689 16.8659 8.63651 16.7919 8.61298 16.7078L7.34821 11.7999Z" fill="url(#paint0_linear_3458_12)"/>
<path d="M15.3984 1.80018V5.0001Z" fill="url(#paint1_linear_3458_12)"/>
<path d="M16.9984 3.40014H13.7984Z" fill="url(#paint2_linear_3458_12)"/>
<path d="M2.59874 12.9999V14.5999Z" fill="url(#paint3_linear_3458_12)"/>
<path d="M3.39872 13.7999H1.79876Z" fill="url(#paint4_linear_3458_12)"/>
<path d="M15.3984 1.80018V5.0001M16.9984 3.40014H13.7984M2.59874 12.9999V14.5999M3.39872 13.7999H1.79876M7.34821 11.7999C7.27679 11.5231 7.13249 11.2704 6.93032 11.0683C6.72815 10.8661 6.47549 10.7218 6.19864 10.6504L1.29077 9.38479C1.20704 9.36102 1.13334 9.31059 1.08087 9.24115C1.02839 9.17171 1 9.08704 1 9C1 8.91296 1.02839 8.82829 1.08087 8.75885C1.13334 8.68941 1.20704 8.63898 1.29077 8.61521L6.19864 7.34884C6.4754 7.27749 6.72798 7.1333 6.93015 6.93128C7.13231 6.72926 7.27667 6.47677 7.34821 6.20007L8.61378 1.29219C8.63731 1.20813 8.68769 1.13407 8.75723 1.08131C8.82678 1.02856 8.91168 1 8.99897 1C9.08626 1 9.17116 1.02856 9.24071 1.08131C9.31025 1.13407 9.36063 1.20813 9.38416 1.29219L10.6489 6.20007C10.7203 6.47692 10.8647 6.72957 11.0668 6.93175C11.269 7.13392 11.5216 7.27822 11.7985 7.34964L16.7064 8.61441C16.7908 8.63769 16.8652 8.68801 16.9182 8.75767C16.9713 8.82732 17 8.91245 17 9C17 9.08755 16.9713 9.17268 16.9182 9.24233C16.8652 9.31198 16.7908 9.36231 16.7064 9.38559L11.7985 10.6504C11.5216 10.7218 11.269 10.8661 11.0668 11.0683C10.8647 11.2704 10.7203 11.5231 10.6489 11.7999L9.38336 16.7078C9.35983 16.7919 9.30946 16.8659 9.23991 16.9187C9.17036 16.9714 9.08546 17 8.99817 17C8.91088 17 8.82598 16.9714 8.75643 16.9187C8.68689 16.8659 8.63651 16.7919 8.61298 16.7078L7.34821 11.7999Z" stroke="white" stroke-width="2" stroke-linecap="round" stroke-linejoin="round"/>
<path d="M7.34821 11.7999C7.27679 11.5231 7.13249 11.2704 6.93032 11.0683C6.72815 10.8661 6.47549 10.7218 6.19864 10.6504L1.29077 9.38479C1.20704 9.36102 1.13334 9.31059 1.08087 9.24115C1.02839 9.17171 1 9.08704 1 9C1 8.91296 1.02839 8.82829 1.08087 8.75885C1.13334 8.68941 1.20704 8.63898 1.29077 8.61521L6.19864 7.34884C6.4754 7.27749 6.72798 7.1333 6.93015 6.93128C7.13231 6.72926 7.27667 6.47677 7.34821 6.20007L8.61378 1.29219C8.63731 1.20813 8.68769 1.13407 8.75723 1.08131C8.82678 1.02856 8.91168 1 8.99897 1C9.08626 1 9.17116 1.02856 9.24071 1.08131C9.31025 1.13407 9.36063 1.20813 9.38416 1.29219L10.6489 6.20007C10.7203 6.47692 10.8647 6.72957 11.0668 6.93175C11.269 7.13392 11.5216 7.27822 11.7985 7.34964L16.7064 8.61441C16.7908 8.63769 16.8652 8.68801 16.9182 8.75767C16.9713 8.82732 17 8.91245 17 9C17 9.08755 16.9713 9.17268 16.9182 9.24233C16.8652 9.31198 16.7908 9.36231 16.7064 9.38559L11.7985 10.6504C11.5216 10.7218 11.269 10.8661 11.0668 11.0683C10.8647 11.2704 10.7203 11.5231 10.6489 11.7999L9.38336 16.7078C9.35983 16.7919 9.30946 16.8659 9.23991 16.9187C9.17036 16.9714 9.08546 17 8.99817 17C8.91088 17 8.82598 16.9714 8.75643 16.9187C8.68689 16.8659 8.63651 16.7919 8.61298 16.7078L7.34821 11.7999Z" fill="url(#paint5_linear_3458_12)"/>
<path d="M15.3984 1.80018V5.0001Z" fill="url(#paint6_linear_3458_12)"/>
<path d="M16.9984 3.40014H13.7984Z" fill="url(#paint7_linear_3458_12)"/>
<path d="M2.59874 12.9999V14.5999Z" fill="url(#paint8_linear_3458_12)"/>
<path d="M3.39872 13.7999H1.79876Z" fill="url(#paint9_linear_3458_12)"/>
<path d="M15.3984 1.80018V5.0001M16.9984 3.40014H13.7984M2.59874 12.9999V14.5999M3.39872 13.7999H1.79876M7.34821 11.7999C7.27679 11.5231 7.13249 11.2704 6.93032 11.0683C6.72815 10.8661 6.47549 10.7218 6.19864 10.6504L1.29077 9.38479C1.20704 9.36102 1.13334 9.31059 1.08087 9.24115C1.02839 9.17171 1 9.08704 1 9C1 8.91296 1.02839 8.82829 1.08087 8.75885C1.13334 8.68941 1.20704 8.63898 1.29077 8.61521L6.19864 7.34884C6.4754 7.27749 6.72798 7.1333 6.93015 6.93128C7.13231 6.72926 7.27667 6.47677 7.34821 6.20007L8.61378 1.29219C8.63731 1.20813 8.68769 1.13407 8.75723 1.08131C8.82678 1.02856 8.91168 1 8.99897 1C9.08626 1 9.17116 1.02856 9.24071 1.08131C9.31025 1.13407 9.36063 1.20813 9.38416 1.29219L10.6489 6.20007C10.7203 6.47692 10.8647 6.72957 11.0668 6.93175C11.269 7.13392 11.5216 7.27822 11.7985 7.34964L16.7064 8.61441C16.7908 8.63769 16.8652 8.68801 16.9182 8.75767C16.9713 8.82732 17 8.91245 17 9C17 9.08755 16.9713 9.17268 16.9182 9.24233C16.8652 9.31198 16.7908 9.36231 16.7064 9.38559L11.7985 10.6504C11.5216 10.7218 11.269 10.8661 11.0668 11.0683C10.8647 11.2704 10.7203 11.5231 10.6489 11.7999L9.38336 16.7078C9.35983 16.7919 9.30946 16.8659 9.23991 16.9187C9.17036 16.9714 9.08546 17 8.99817 17C8.91088 17 8.82598 16.9714 8.75643 16.9187C8.68689 16.8659 8.63651 16.7919 8.61298 16.7078L7.34821 11.7999Z" stroke="url(#paint10_linear_3458_12)" stroke-linecap="round" stroke-linejoin="round"/>
<defs>
<linearGradient id="paint0_linear_3458_12" x1="0.198458" y1="17.8" x2="17.798" y2="0.200432" gradientUnits="userSpaceOnUse">
<stop stop-color="#350E4B"/>
<stop offset="1" stop-color="#2B87FF"/>
</linearGradient>
<linearGradient id="paint1_linear_3458_12" x1="0.198458" y1="17.8" x2="17.798" y2="0.200432" gradientUnits="userSpaceOnUse">
<stop stop-color="#350E4B"/>
<stop offset="1" stop-color="#2B87FF"/>
</linearGradient>
<linearGradient id="paint2_linear_3458_12" x1="0.198458" y1="17.8" x2="17.798" y2="0.200432" gradientUnits="userSpaceOnUse">
<stop stop-color="#350E4B"/>
<stop offset="1" stop-color="#2B87FF"/>
</linearGradient>
<linearGradient id="paint3_linear_3458_12" x1="0.198458" y1="17.8" x2="17.798" y2="0.200432" gradientUnits="userSpaceOnUse">
<stop stop-color="#350E4B"/>
<stop offset="1" stop-color="#2B87FF"/>
</linearGradient>
<linearGradient id="paint4_linear_3458_12" x1="0.198458" y1="17.8" x2="17.798" y2="0.200432" gradientUnits="userSpaceOnUse">
<stop stop-color="#350E4B"/>
<stop offset="1" stop-color="#2B87FF"/>
</linearGradient>
<linearGradient id="paint5_linear_3458_12" x1="0.198458" y1="17.8" x2="17.798" y2="0.200432" gradientUnits="userSpaceOnUse">
<stop stop-color="#350E4B"/>
<stop offset="1" stop-color="#2B87FF"/>
</linearGradient>
<linearGradient id="paint6_linear_3458_12" x1="0.198458" y1="17.8" x2="17.798" y2="0.200432" gradientUnits="userSpaceOnUse">
<stop stop-color="#350E4B"/>
<stop offset="1" stop-color="#2B87FF"/>
</linearGradient>
<linearGradient id="paint7_linear_3458_12" x1="0.198458" y1="17.8" x2="17.798" y2="0.200432" gradientUnits="userSpaceOnUse">
<stop stop-color="#350E4B"/>
<stop offset="1" stop-color="#2B87FF"/>
</linearGradient>
<linearGradient id="paint8_linear_3458_12" x1="0.198458" y1="17.8" x2="17.798" y2="0.200432" gradientUnits="userSpaceOnUse">
<stop stop-color="#350E4B"/>
<stop offset="1" stop-color="#2B87FF"/>
</linearGradient>
<linearGradient id="paint9_linear_3458_12" x1="0.198458" y1="17.8" x2="17.798" y2="0.200432" gradientUnits="userSpaceOnUse">
<stop stop-color="#350E4B"/>
<stop offset="1" stop-color="#2B87FF"/>
</linearGradient>
<linearGradient id="paint10_linear_3458_12" x1="0.198458" y1="17.8" x2="17.798" y2="0.200432" gradientUnits="userSpaceOnUse">
<stop stop-color="#350E4B"/>
<stop offset="1" stop-color="#2B87FF"/>
</linearGradient>
</defs>
</svg>
